<svg width="40" height="40" viewBox="0 0 40 40" fill="none" xmlns="http://www.w3.org/2000/svg">
<path d="M6.78167 28.3333C6.71333 28.88 6.66667 29.435 6.66667 30C6.66667 30.565 6.71333 31.12 6.78167 31.6666H0V28.3333H6.78167ZM18.3333 16.6666H21.6667V8.33329H26.6667L20 1.66663L13.3333 8.33329H18.3333V16.6666ZM11.8383 19.48L7.03833 14.6783L4.68 17.035L9.48167 21.8366C10.1667 20.955 10.9567 20.165 11.8383 19.48ZM33.2183 28.3333C33.2867 28.88 33.3333 29.435 33.3333 30C33.3333 30.565 33.2867 31.12 33.2183 31.6666H40V28.3333H33.2183ZM30 30C30 30.5683 29.9417 31.1233 29.85 31.6666H10.15C10.0583 31.1233 10 30.5683 10 30C10 24.4766 14.4767 20 20 20C25.5233 20 30 24.4766 30 30ZM26.43 28.3333C25.6833 25.4666 23.095 23.3333 20 23.3333C16.9033 23.3333 14.3167 25.4666 13.5717 28.3333H26.43ZM32.9633 14.6783L28.1617 19.48C29.0417 20.165 29.8333 20.9566 30.5183 21.8366L35.32 17.035L32.9633 14.6783ZM40 35H0V38.3333H40V35Z" fill="#D8D8D8"/>
</svg>
