<svg width="40" height="40" viewBox="0 0 40 40" fill="none" xmlns="http://www.w3.org/2000/svg">
<path d="M6.78167 21.6667H0V18.3333H6.78167C6.71333 18.88 6.66667 19.435 6.66667 20C6.66667 20.565 6.71333 21.12 6.78167 21.6667ZM11.8383 9.48L7.03667 4.67833L4.68 7.035L9.48167 11.8367C10.1667 10.955 10.9567 10.165 11.8383 9.48ZM30.52 11.8367L35.3217 7.035L32.965 4.67833L28.1633 9.48C29.0433 10.165 29.8333 10.9567 30.52 11.8367ZM20 6.66667C20.565 6.66667 21.12 6.71333 21.6667 6.78167V0H18.3333V6.78167C18.88 6.71333 19.435 6.66667 20 6.66667ZM20 33.3333C19.435 33.3333 18.88 33.2867 18.3333 33.2183V40H21.6667V33.2183C21.12 33.2867 20.565 33.3333 20 33.3333ZM33.2183 18.3333C33.2867 18.88 33.3333 19.435 33.3333 20C33.3333 20.565 33.2867 21.12 33.2183 21.6667H40V18.3333H33.2183ZM28.1633 30.52L32.9633 35.32L35.3217 32.9633L30.5217 28.1633C29.835 29.0433 29.045 29.8333 28.1633 30.52ZM9.48 28.1617L4.68 32.9617L7.03667 35.3183L11.8367 30.5183C10.9567 29.8333 10.165 29.0433 9.48 28.1617ZM13.3333 20C13.3333 23.6767 16.3233 26.6667 20 26.6667C23.6767 26.6667 26.6667 23.6767 26.6667 20C26.6667 16.3233 23.6767 13.3333 20 13.3333C16.3233 13.3333 13.3333 16.3233 13.3333 20ZM30 20C30 25.5233 25.5233 30 20 30C14.4767 30 10 25.5233 10 20C10 14.4767 14.4767 10 20 10C25.5233 10 30 14.4767 30 20Z" fill="#D8D8D8"/>
</svg>
